HIERARCHY
ROOT hip
{
  OFFSET 0 0 0
  CHANNELS 6 Xposition Yposition Zposition Zrotation Yrotation Xrotation
  JOINT abdomen
  {
    OFFSET 0 20.6881 -0.73152
    CHANNELS 3 Zrotation Xrotation Yrotation
    JOINT chest
    {
      OFFSET 0 11.7043 -0.48768
      CHANNELS 3 Zrotation Xrotation Yrotation
      JOINT neck
      {
        OFFSET 0 22.1894 -2.19456
        CHANNELS 3 Zrotation Xrotation Yrotation
        JOINT head
        {
          OFFSET -0.24384 7.07133 1.2192
          CHANNELS 3 Zrotation Xrotation Yrotation
          JOINT leftEye
          {
            OFFSET 4.14528 8.04674 8.04672
            CHANNELS 3 Zrotation Xrotation Yrotation
            End Site
            {
              OFFSET 1 0 0
            }
          }
          JOINT rightEye
          {
            OFFSET -3.6576 8.04674 8.04672
            CHANNELS 3 Zrotation Xrotation Yrotation
            End Site
            {
              OFFSET 1 0 0
            }
          }
        }
      }
      JOINT rCollar
      {
        OFFSET -2.68224 19.2634 -4.8768
        CHANNELS 3 Zrotation Xrotation Yrotation
        JOINT rShldr
        {
          OFFSET -8.77824 -1.95073 1.46304
          CHANNELS 3 Zrotation Xrotation Yrotation
          JOINT rForeArm
          {
            OFFSET -28.1742 -1.7115 0.48768
            CHANNELS 3 Zrotation Xrotation Yrotation
            JOINT rHand
            {
              OFFSET -22.5879 0.773209 7.07136
              CHANNELS 3 Zrotation Xrotation Yrotation
              JOINT rThumb1
              {
                OFFSET -1.2192 -0.487915 3.41376
                CHANNELS 3 Zrotation Xrotation Yrotation
                JOINT rThumb2
                {
                  OFFSET -3.37035 -0.52449 3.41376
                  CHANNELS 3 Zrotation Xrotation Yrotation
                  End Site
                  {
                    OFFSET -1.78271 -1.18214 1.43049
                  }
                }
              }
              JOINT rIndex1
              {
                OFFSET -7.75947 0.938293 5.60832
                CHANNELS 3 Zrotation Xrotation Yrotation
                JOINT rIndex2
                {
                  OFFSET -2.54057 -0.884171 1.56538
                  CHANNELS 3 Zrotation Xrotation Yrotation
                  End Site
                  {
                    OFFSET -1.62519 -0.234802 1.16502
                  }
                }
              }
              JOINT rMid1
              {
                OFFSET -8.24714 1.18213 3.41376
                CHANNELS 3 Zrotation Xrotation Yrotation
                JOINT rMid2
                {
                  OFFSET -3.10165 -0.590103 1.0647
                  CHANNELS 3 Zrotation Xrotation Yrotation
                  End Site
                  {
                    OFFSET -2.48547 -0.328903 0.83742
                  }
                }
              }
              JOINT rRing1
              {
                OFFSET -8.82822 0.546677 1.51678
                CHANNELS 3 Zrotation Xrotation Yrotation
                JOINT rRing2
                {
                  OFFSET -2.60934 -0.819778 -0.0198488
                  CHANNELS 3 Zrotation Xrotation Yrotation
                  End Site
                  {
                    OFFSET -2.33842 -0.294052 0.168128
                  }
                }
              }
              JOINT rPinky1
              {
                OFFSET -8.27202 -0.0477905 -0.4584
                CHANNELS 3 Zrotation Xrotation Yrotation
                JOINT rPinky2
                {
                  OFFSET -1.82734 -0.647385 -0.700984
                  CHANNELS 3 Zrotation Xrotation Yrotation
                  End Site
                  {
                    OFFSET -1.69225 -0.51767 -0.607171
                  }
                }
              }
            }
          }
        }
      }
      JOINT lCollar
      {
        OFFSET 2.68224 19.2634 -4.8768
        CHANNELS 3 Zrotation Xrotation Yrotation
        JOINT lShldr
        {
          OFFSET 8.77824 -1.95073 1.46304
          CHANNELS 3 Zrotation Xrotation Yrotation
          JOINT lForeArm
          {
            OFFSET 28.1742 -1.7115 0.48768
            CHANNELS 3 Zrotation Xrotation Yrotation
            JOINT lHand
            {
              OFFSET 22.5879 0.773209 7.07136
              CHANNELS 3 Zrotation Xrotation Yrotation
              JOINT lThumb1
              {
                OFFSET 1.2192 -0.487915 3.41376
                CHANNELS 3 Zrotation Xrotation Yrotation
                JOINT lThumb2
                {
                  OFFSET 3.37035 -0.52449 3.41376
                  CHANNELS 3 Zrotation Xrotation Yrotation
                  End Site
                  {
                    OFFSET 1.78271 -1.18214 1.43049
                  }
                }
              }
              JOINT lIndex1
              {
                OFFSET 7.75947 0.938293 5.60832
                CHANNELS 3 Zrotation Xrotation Yrotation
                JOINT lIndex2
                {
                  OFFSET 2.54057 -0.884171 1.56538
                  CHANNELS 3 Zrotation Xrotation Yrotation
                  End Site
                  {
                    OFFSET 1.62519 -0.234802 1.16502
                  }
                }
              }
              JOINT lMid1
              {
                OFFSET 8.24714 1.18213 3.41376
                CHANNELS 3 Zrotation Xrotation Yrotation
                JOINT lMid2
                {
                  OFFSET 3.10165 -0.590103 1.0647
                  CHANNELS 3 Zrotation Xrotation Yrotation
                  End Site
                  {
                    OFFSET 2.48547 -0.328903 0.83742
                  }
                }
              }
              JOINT lRing1
              {
                OFFSET 8.82822 0.546677 1.51678
                CHANNELS 3 Zrotation Xrotation Yrotation
                JOINT lRing2
                {
                  OFFSET 2.60934 -0.819778 -0.0198488
                  CHANNELS 3 Zrotation Xrotation Yrotation
                  End Site
                  {
                    OFFSET 2.33842 -0.294052 0.168128
                  }
                }
              }
              JOINT lPinky1
              {
                OFFSET 8.27202 -0.0477905 -0.4584
                CHANNELS 3 Zrotation Xrotation Yrotation
                JOINT lPinky2
                {
                  OFFSET 1.82734 -0.647385 -0.700984
                  CHANNELS 3 Zrotation Xrotation Yrotation
                  End Site
                  {
                    OFFSET 1.69225 -0.51767 -0.607171
                  }
                }
              }
            }
          }
        }
      }
    }
  }
  JOINT rButtock
  {
    OFFSET -8.77824 4.35084 1.2192
    CHANNELS 3 Zrotation Xrotation Yrotation
    JOINT rThigh
    {
      OFFSET 0 -1.70687 -2.19456
      CHANNELS 3 Zrotation Xrotation Yrotation
      JOINT rShin
      {
        OFFSET 0 -36.8199 0.73152
        CHANNELS 3 Zrotation Xrotation Yrotation
        JOINT rFoot
        {
          OFFSET 0.73152 -45.1104 -5.12064
          CHANNELS 3 Zrotation Xrotation Yrotation
          End Site
          {
            OFFSET -1.1221 -3.69964 12.103
          }
        }
      }
    }
  }
  JOINT lButtock
  {
    OFFSET 8.77824 4.35084 1.2192
    CHANNELS 3 Zrotation Xrotation Yrotation
    JOINT lThigh
    {
      OFFSET 0 -1.70687 -2.19456
      CHANNELS 3 Zrotation Xrotation Yrotation
      JOINT lShin
      {
        OFFSET 0 -36.8199 0.73152
        CHANNELS 3 Zrotation Xrotation Yrotation
        JOINT lFoot
        {
          OFFSET -0.73152 -45.1104 -5.12064
          CHANNELS 3 Zrotation Xrotation Yrotation
          End Site
          {
            OFFSET 1.1221 -3.69964 12.103
          }
        }
      }
    }
  }
}
MOTION
Frames:	5
Frame Time:	0.03333
-35.7794 70.0272 14.360800000000001 -173.20874 23.458434 -172.547944 11.04232 10.849969 -52.837252 1.722166 -9.947074 64.741212 -3.626275 34.072402 -136.415249 32.019373 37.697241 154.455904 -147.440458 -18.351202 -57.894524 150.626899 -10.190496 37.576443 -13.352609 42.515347 8.698298 61.61015 -1.793285 26.311377 1.314887 3.348572 117.338387 -1.976778 -32.249541 -0.678148 0.999912 -2.687215 14.58638 -42.521952 -66.773408 -81.150604 -113.341192 60.989748 107.349926 -50.99731 -3.958978 -63.276356 135.416473 -74.292754 107.322492 -17.025281 -32.176126 -52.853449 86.930162 72.785644 -87.75631 154.02752 -14.791639 162.406264 -125.858583 41.65566 165.933842 76.284923 -71.115786 27.062555 117.30916 50.622375 -116.048706 -107.887344 -48.275586 -114.971171 26.149383 -25.666564 -61.744247 1.531092 2.320311 2.394674 156.822936 5.711349 -75.596141 -154.108191 -5.133428 -60.12774 171.109081 9.857809 -138.202783 74.578596 -21.145427 80.197096 124.620197 29.257198 -113.61423 127.82576 46.681189 -105.557761 -11.736247 -4.520551 -8.289318 -43.355311 82.833399 30.578356 151.6421 -13.887311 -89.772278 30.406513 -32.849576 -142.344657 -131.052677 66.690256 -38.402555 142.920427 33.612023 -128.388186 -77.196864 -43.26898 -141.523012 105.006951 46.559761 164.205538 -63.985695 7.47625 -35.268206 117.297278 -2.178018 -92.896602 -59.082428 -19.476967 -94.936341 76.589039 36.749706 -160.988091
-37.8368 69.7976 15.0929 -172.26334 20.471903 -172.273952 8.440415 5.737391 112.108457 -0.154833 4.772863 -99.959753 14.728945 19.742532 83.193949 -32.656055 5.187995 -54.251659 -143.239788 -24.666554 -66.692238 126.479525 -27.967808 52.564573 -2.467322 -24.515804 -13.885356 -90.504423 -43.304554 -131.014078 -4.588632 -4.06275 -150.703794 -157.053538 26.046716 136.78049 -162.616829 -3.171345 78.876272 -160.590398 -27.475723 64.098836 -153.367952 -17.423672 139.822167 -65.183056 -53.379633 -131.451017 176.909313 -51.302842 134.976607 -16.495203 52.996229 -24.021808 -98.536789 -41.067531 -99.046744 -163.482596 70.655824 -140.132072 -116.513102 25.514538 173.766774 -30.035046 -83.462762 -90.085823 0.086012 -12.4997 -5.844079 127.505648 -20.98091 -169.719478 -55.01445 -5.844473 81.68178 179.515591 16.723648 -148.353843 2.178286 -6.547688 -12.013917 79.62878 -38.543471 166.056182 15.656891 -20.805942 27.911698 -19.845592 41.896178 -57.552253 -46.597497 -54.568342 -11.368484 -83.274813 -83.288561 -52.963213 -12.644831 -9.842278 -7.045763 112.991457 -75.289965 131.858846 -85.986018 29.579581 -138.230312 41.494969 -74.841411 -122.073003 6.759376 3.369701 8.440489 -23.701635 -30.857025 -148.374713 -72.261707 -41.700028 8.719147 82.527424 42.39344 17.629881 -54.671151 -2.260008 -28.148732 104.00093 -9.927391 64.890205 34.295363 41.379103 -150.612587 144.327707 22.215342 -111.167362
-40.1263 70.138 15.8933 -172.005192 14.438852 -173.140091 6.217507 4.814966 88.196063 -0.375412 2.023169 -75.425291 -4.200204 26.20192 -105.588003 35.696186 21.016573 126.934847 -32.051971 18.894349 -60.167122 48.036808 19.003009 41.17171 -150.651137 -41.598139 -176.262927 -42.34669 24.689495 -4.929864 94.88552 -49.301112 -77.806519 -66.291797 50.851902 45.307366 -170.787435 -13.361129 78.148464 176.728463 -24.148624 65.962694 -128.5505 24.285503 106.778188 -160.386182 76.076542 110.77775 -174.904861 -47.714265 140.381814 -20.655996 63.77516 -11.119565 -42.504545 -33.625995 -54.811167 47.781599 24.282821 9.545595 -111.483903 -66.79054 -144.920229 -179.609873 -51.466251 167.218355 -32.822274 -79.851927 -16.701897 -123.014445 67.435625 92.33435 163.87554 39.546782 -82.945734 -151.362508 -44.216122 -137.86853 174.524732 -3.02298 -79.451266 165.770295 2.769364 -25.211626 155.050403 29.922669 -125.014923 136.672185 -80.722349 139.030733 -37.836211 -37.436984 3.580754 79.558748 55.475578 -61.034963 -8.671171 11.317561 -10.532048 156.305063 -36.573751 -179.788179 -159.765886 -64.68759 13.024255 -51.210876 27.046324 163.762358 138.864479 72.787324 31.582693 -173.546108 50.169114 27.774199 70.749881 49.998276 91.166676 -61.320578 38.113761 -169.228126 -50.119565 -7.6556 -17.589418 99.011994 -21.096525 11.85599 -28.859624 46.253418 -82.544168 18.05551 -24.885929 135.762197
-42.65 70.466 16.5293 -171.960453 10.11102 -173.818092 8.01608 4.831896 -73.304098 -1.30699 -3.426879 86.950807 17.160982 16.463148 89.329731 -30.153189 8.76319 -64.586219 -8.362217 4.908502 -60.76637 40.421249 13.191238 34.873318 -153.752872 -11.653607 178.97593 128.996896 -21.939956 154.79768 -1.337916 -24.074225 110.640619 -10.751941 -52.686773 -18.000418 -178.864951 -18.372041 76.468949 21.400967 -38.585158 43.547899 -176.843858 -43.303001 113.241323 -121.791352 -71.93241 175.105012 -166.252133 -26.689927 143.329882 -167.779306 45.562204 133.239436 -94.14994 -37.581451 -101.804491 -114.605404 5.670613 -160.046565 33.460796 -25.79718 16.715516 -177.613636 -7.520455 -168.010308 -6.75229 -43.686727 -2.892035 125.097484 -1.177247 176.657392 -171.53606 -14.813074 140.188849 16.9624 55.67017 -12.285177 12.212502 1.85476 -5.805087 -18.168698 46.39143 12.347418 142.929651 34.102869 -119.831284 21.059563 -75.362608 38.458845 -2.673009 52.293494 -22.842977 176.162353 -0.618591 -166.440467 137.810976 -1.608085 -179.086228 -17.781172 24.391735 14.817967 -46.573825 -26.420782 72.254206 130.664565 34.467868 -85.152653 13.429863 -3.648104 7.646447 -24.674015 -16.442886 65.106844 70.549258 14.795111 -172.238058 43.817581 15.540272 47.046753 20.485838 23.608939 52.554551 -47.646424 -60.572679 -80.264277 -29.905391 39.635871 92.720898 24.981263 -10.376245 -54.667548
-45.2629 70.34 16.7326 -171.855025 7.554722 -174.460058 5.4597 6.112543 -54.766167 0.492964 -0.552754 70.006445 -3.532642 15.861559 -76.862899 31.907905 3.503109 95.347283 16.582626 -5.894513 -38.915616 39.140899 9.821633 27.174178 -155.822823 60.974727 164.018549 96.077716 -25.804995 77.972013 179.647042 13.55292 35.429105 -139.626113 37.000709 115.298002 3.670648 3.006529 12.307513 -24.985721 -36.63 -51.216288 -20.00101 16.090456 16.404931 -4.100051 -0.978266 24.170424 -159.477699 -10.983841 143.210669 -163.544296 6.697893 128.077769 -104.342788 -34.448052 -108.510176 172.279848 58.861921 -111.832219 -46.966902 -67.412386 -71.210514 -92.307743 44.900455 162.997453 98.939027 58.164527 -95.638145 85.781502 43.023176 -70.063367 -171.428781 33.881696 137.424741 18.182567 58.703186 -12.940083 -20.20289 -26.536058 -1.02597 1.933179 -10.903593 50.406632 22.367653 32.458105 -1.880772 -1.498548 -14.331557 -15.971519 -1.315858 55.452877 -27.22114 171.27912 -23.176395 176.965395 139.42354 -21.632278 169.115212 148.271899 10.444492 170.36823 110.269287 18.692974 117.349815 -48.121605 -26.335699 4.772397 -121.866045 80.736342 -41.997064 132.587093 53.240856 139.325599 61.882011 -15.325552 -67.047409 -60.579393 38.269197 -27.180827 67.960912 67.044452 50.944658 -111.852161 -29.572837 140.259719 -26.288535 -57.327999 -65.433955 -47.625896 -25.749403 -172.145261
